<svg xmlns="http://www.w3.org/2000/svg" viewBox="0 0 548.7 260.7">
  <g data-name="katman 2">
    <path d="M.2 255.8a.1.1 0 0 1 .1-.1v-.8h.3c0-.1 0-.1.1-.2v-.2c0-.1 0-.2.1-.2l.3-.4.2-.2.3-.3a.1.1 0 0 0 .1-.1h2.5l52.3-1.2.5-.7c0-.1.1-.2.1-.3h.1l.2-.4a143.6 143.6 0 0 1 14.4-20.2c1.9-2.1 3.7-4 5.6-5.8l.3-.4.6-.6.5-.4.3-.3-4.2-.9c-7.3-1.8-16.4-6-20.5-16.2l-.4-1.2a12 12 0 0 1-.5-1.1l-.5-1.2-3.2-9-.3-.8a21 21 0 0 0-.8-2.3v-.2l-.6-1.7c-.3-.8-.5-1.6-.8-2.4a.8.8 0 0 0-.2-.5 1.9 1.9 0 0 0-.2-.8c-.1-.2-.1-.4-.2-.5s-.1-.6-.2-.8-1-2.9-1.4-4.3a5 5 0 0 0-.4-1.1 2.4 2.4 0 0 0-.2-.8l-.6-1.8-.3-1.2c-.2-.4-.3-.9-.5-1.3s-.5-1.6-.7-2.5c-2.8-9-5.1-17.1-6.4-21.8a8.3 8.3 0 0 1-.4-1.5 49 49 0 0 0-6.2 2.4 3.5 3.5 0 0 1-4.8-1.6l-.2-.4a.4.4 0 0 1-.1-.3h-.1V145a4 4 0 0 1 .3-1.5 3.3 3.3 0 0 1 1.7-1.6 53 53 0 0 1 8.7-3.3l-17.8-18.8 2.6-2.5-.3-.3a2.9 2.9 0 0 1-.8-2.9c.3-1.5 1.7-2.8 3.9-3.6a11 11 0 0 1 2.6-.6 3.1 3.1 0 0 1 .6-3.8 3.5 3.5 0 0 1 3-.9l.3-.9c.9-2.1 2.3-3.4 3.8-3.7a3.1 3.1 0 0 1 2.8 1l.3.3 1.5-1.4 2.5-2.3 5.8 6.1-3.9-17.8 7.1-1.5a4.7 4.7 0 0 1-.6-1.5 2.8 2.8 0 0 1 .6-2.5 4.4 4.4 0 0 1 4-.7l1.1.3a3.3 3.3 0 0 1 2.2-1.6 3 3 0 0 1 2.6.6l.9-.8c1.4-1 2.8-1.4 3.9-1a2.6 2.6 0 0 1 1.6 2 8 8 0 0 1 .1 1.6h.3l1.7-.4 5.1-1.1 4.2 19 1.1-11.1 5.8.6a4.3 4.3 0 0 1-.4-1.9A1.6 1.6 0 0 1 84 85a2.7 2.7 0 0 1 2.7.3l.9.8a3.1 3.1 0 0 1 1.3-.3 3.3 3.3 0 0 1 1.2.5l1.1-.5a2.8 2.8 0 0 1 2.7.2 1.7 1.7 0 0 1 .6 1.6 4.8 4.8 0 0 1-.8 1.8h1.5c-.1-.1-.1-.1-.1-.2v-2.7c0-.1 0-.2.1-.2 0-.2.1-.3.2-.5a.8.8 0 0 1 .1-.4c0-.1.1-.2.1-.3h.1c0-.2.1-.3.1-.4l.4-.6a.3.3 0 0 1 .1-.2l.3-.4c0-.1.1-.1.1-.2l.3-.3.2-.3.2-.3a.2.2 0 0 0 .2-.2l.3-.3.2-.2.3-.3.2-.2.3-.2.2-.2.4-.3h.1a19.4 19.4 0 0 1 4.3-2.7l2.9-1.7a9.2 9.2 0 0 1-.8-2.5 25.7 25.7 0 0 1-16.8 1.8 6.5 6.5 0 0 1 .8 2.2 3.4 3.4 0 0 1-2.6 3.4 5 5 0 0 1-2.8-.4 3.3 3.3 0 0 1-3.7 1.4 5.2 5.2 0 0 1-3.6-3.8 5 5 0 0 1-2-2.3 4.6 4.6 0 0 1 0-4.4 2.1 2.1 0 0 1 2.1-1.2 2.6 2.6 0 0 1 1-2.1 3.8 3.8 0 0 1 4.4-.3l1.1-.5c1.8-.6 3.7.8 4.6 2.2a3.8 3.8 0 0 1-.1 4.1h.1l.3-.3a.1.1 0 0 0 .1-.1l.3-.4a.1.1 0 0 0 .1-.1l.3-.4.3-.5.3-.6c.2-.1.2-.3.3-.5 5.2-10.1 3.9-31.2 25-40.3 14.7-6.3 29.2 2.6 29.2 2.6 12.5 7.9 16.5 16 17.2 22.3a15.2 15.2 0 0 1 2 6.2c.4 5-4.3 11.8-7.4 13.7.3 2.8-1 6.8-3.6 8.6l.7 1c1.9 2.6 4.7 4.5 6.9 7a7.6 7.6 0 0 1 1.8 2.6l.4.6a.8.8 0 0 0 .1.4c0 .1.1.2.1.4s.1.2.1.3v.3c.1.1.1.1.1.2v.2a.6.6 0 0 1 .1.4v.5a.8.8 0 0 0 .1.4v1.8a.4.4 0 0 1-.1.3v.2c0 .1 0 .1-.1.3a1.5 1.5 0 0 1-.3.8l-.2.3-.3.3v.2l-.5.5c0 .2.1.4.1.6s.1.5.1.7v.4h.3l.7-.2h.2l.8-.2h.3l.8-.2 1.4-.4a42 42 0 0 0 5.3-2.1l1.2-.6.8-.5a25 25 0 0 0 4.4-3.5 26.7 26.7 0 0 0 3.5-5c.2-.3.3-.7.5-1a27 27 0 0 0 1.3-3l.6-1.8a2.5 2.5 0 0 1-1.2-.9c-.7-2.3.9-5.2 2.1-6.5s1.5-.5 3.3-.6h-.2v-.2h-.1c0-.1 0-.1-.1-.2h-.1c0-.1 0-.1-.1-.2a.3.3 0 0 0-.1-.2.5.5 0 0 1-.2-.4 2.5 2.5 0 0 1-.4-.9c-.7-2-2.9-7.8-1.1-10.5 3-4.5 5.1 2.4 5.9 1s4.2-11.8 9.4-11.4h.3l.7.2h.4a.1.1 0 0 0 .1.1h.4c10.9 5.5 5.2 15.9 2.1 22.4a.5.5 0 0 0-.2.4.1.1 0 0 0-.1.1v.4a.4.4 0 0 1-.1.3l-.2.3h2.4a.1.1 0 0 0 .1.1v.2c.1 0 .1 0 .1.1h.1c0 .3.1.6.1.9s.1.1.1.2.1.6.1.9V84a7.6 7.6 0 0 1-.6 2.6 6 6 0 0 1-1.4 2.1h-2.5a2.5 2.5 0 0 1-.1.8.6.6 0 0 0-.1.4c0 .1-.1.3-.1.4s0 .3-.1.4l-.6 2.2a9 9 0 0 1-.5 1.5 46.8 46.8 0 0 1-4.1 9.1l-.9 1.2a17 17 0 0 1-1.5 2.2l-1.5 1.9-.7.8-3.3 3.2-1.3 1-1.8 1.4-4.2 2.6-3.3 1.6-2.2 1-1.7.7a69.5 69.5 0 0 1-11.3 3 12.3 12.3 0 0 1 .8 2.5h.8l.5-.2h.4c0-.1.1-.1.2-.1h.4c.1 0 .2 0 .2-.1 6.3-2.4 14.6-5.3 16.3-4.6a16 16 0 0 1 6.7 6.7c6.1 4 16.1 9.5 27.7 15.6 9.6 5.1 19.2 9.6 28.7 13.5-1.5-10.6.7-19 6.6-24.4s11.3-7.3 17.6-7.3a23.3 23.3 0 0 1 11.1 3 21.2 21.2 0 0 1 8 8.5 17.6 17.6 0 0 1 1.1 13.3l-.3.9a3.6 3.6 0 0 0-.4.9c-2.1 4.7-7.4 8-13 8.2h-.4a12.5 12.5 0 0 1-11.9-8l-.3-.8a.1.1 0 0 0-.1-.1 1.4 1.4 0 0 0-.2-.7l-.3-.7v-.2c-.1-.2-.1-.4-.2-.5v-.2c-.1-.2-.1-.4-.2-.6v-.2c0-.2-.1-.3-.1-.5v-.2a1.3 1.3 0 0 1-.1-.6v-2.1a.9.9 0 0 0 .1-.5 8.4 8.4 0 0 1 .5-1.7 7.1 7.1 0 0 1 14.1 1.1 7.1 7.1 0 0 1-6.7 7.2 6 6 0 0 0 5.4 2.9c3.2 0 6.4-1.8 7.5-4.3a14 14 0 0 0 1-5.1 13.1 13.1 0 0 0-3.8-8l-.5-.5c-.2-.2-.4-.3-.5-.5l-.3-.2-.3-.2c0-.1-.1-.1-.2-.2l-.2-.2-.3-.2h-.6c-1.8-1.1-11.2-5.7-21.2 3.5-3.1 2.8-4.4 6.6-4.8 10.6v-1.4c-.7 4.5.2 9.3 1.3 13.2l.4.2a216.8 216.8 0 0 0 43.7 11.3 362.4 362.4 0 0 0 57.6 3.2c9.5-.2 19.3-.6 29.3-1.4-.2-.7-.3-1.4-.5-2.1s-.1-.3-.2-.6-.3-1.1-.4-1.7l-.3-1.1c-.5-1.5-.9-2.8-1.5-4.2a30 30 0 0 1-4 4.4 8 8 0 0 1-1.4 1.2c-.1.1-.2.3-.4.4l-.4.3a19.6 19.6 0 0 1-2.8 1.9l-.3.2h-.5l-.3.2h-.1l-.3.2h-.5l-.3.2h-4.2v-.2l-.2-.2c0-.1 0-.1-.1-.4v-.6c0-.1.1-.2.1-.3v-.4c0-.1 0-.2.1-.2a.4.4 0 0 1 .1-.3.4.4 0 0 0 .1-.3c.1-.1.1-.2.1-.4l.2-.3.2-.3.2-.3c0-.1.1-.2.2-.3l.2-.5a4 4 0 0 1 .5-.9l.2-.4.2-.4h.1a.8.8 0 0 0 .2-.5l.9-1.5.4-.5c0-.1 0-.2.1-.2l.2-.3.4-.6.5-.9 2.4-3.6.6-.9.3-.4 1.3-1.7.3-.3a24.5 24.5 0 0 1 2.3-2.9l1.2-1.4a24.3 24.3 0 0 1 3.2-2.4l1.1-.6.6-.3a30 30 0 0 1 6.2-1.9h.7a36.4 36.4 0 0 1 8.1-.2h1l2.6.2h.5l1.1.2h.6l1.7.3h.5l1.3.2h.6l1.3.2 5.5.9 1.5.2c4.3.6 9.3 1.2 15.3 1.7l4.7.3a70 70 0 0 0 11.6-.3h.8l-.7-1.2.9-.4 1.8-.5a3.2 3.2 0 0 1 .6-2.3l.3-.3h.2v-.6a3.1 3.1 0 0 1 3.3.2 2.9 2.9 0 0 1 .8 1.4l1-.3 1.1 1.6h.5l.4-.2h.3a13.9 13.9 0 0 0 3.6-2.1l.7-.6-1.3-.3v-1.5h-.2l-.3-.2h-.8c-.1 0-.1 0-.1-.1h-.2l-.2-.2a.4.4 0 0 0-.1-.3h-.2v-.2h-.1c-.1 0-.1-.1-.1-.2h-.1v-.3a2.9 2.9 0 0 1 2.3-2.6v-2l.4-.5 1.2.2v-2.4l-1 .3.2-.3s-1.4.7-1.5-.1.9-2.2 1.2-2.6-1.3 1-1.4.3 2.3-2.6 2.3-2.6l-2-1.3s.3-.8 2-.9a9 9 0 0 1-.8-2.9 5.8 5.8 0 0 0 1.1 1.2c.2-14.6.6-32.5 1.3-37.9 0-.4.1-.7.1-1s.4-2.2.6-3.1l.3-1.4c.1-.5.3-1 .4-1.4a.4.4 0 0 1 .1-.3v-.2a.4.4 0 0 0 .1-.3 12.3 12.3 0 0 1-3.9.4h-1.3l-.6-.2-.5-.2-.6-.2-.5-.3-.5-.3-.6-.4-.5-.3c-.1-.2-.3-.3-.4-.4h-.1l-.4-.3a.1.1 0 0 0-.1-.1l-.4-.4-.5-.4-.4-.4c-.1-.1-.2-.3-.4-.4s-.3-.3-.4-.4l-.4-.4a1 1 0 0 1-.4-.5l-.4-.5-.3-.5-.3-.4-.3-.5a.8.8 0 0 1-.2-.4l-.3-.5a6.7 6.7 0 0 1-.8-1.8v-.2h-.1V66c.9-.7 3.9 4.4 9.2 3.5l8.2-1.3h6.7l.6-.3h-.2a22.5 22.5 0 0 1-8.7-6.4l-1.8-1.6a29.7 29.7 0 0 1-10.4-8.7c-.9 0-2.3-.1-4 0a16.3 16.3 0 0 1-8.5-1.9 14.5 14.5 0 0 1-6.6-9 3.6 3.6 0 0 1-.2-1 .4.4 0 0 1-.1-.3c-.1-.2-.1-.4-.2-.6V38c-.1-.2-.1-.4-.2-.6a.4.4 0 0 0-.1-.3v-.5a.8.8 0 0 1-.1-.4 4 4 0 0 0-.1-.5v-.4a.6.6 0 0 1-.1-.4.6.6 0 0 0-.1-.4v-.4c0-.1-.1-.2-.1-.3V33a.8.8 0 0 0-.1-.4v-3.1a1.1 1.1 0 0 0 .1-.5v-.5a11.5 11.5 0 0 1 1-3.6s1.1-2.3 2.7-1.4.3 2.8.2 3-1.9 4.3.6 13.2a11.1 11.1 0 0 0 5 6.9 14.4 14.4 0 0 0 8.8 1.3l-.6-1.3a41.9 41.9 0 0 1-3.9-16.1 25.2 25.2 0 0 1-2-21 26.3 26.3 0 0 1 5-8.9l.2-.2a.1.1 0 0 1 .1-.1h1.1l.9.4a1.8 1.8 0 0 1 .2 2.4 22.2 22.2 0 0 0-4.3 7.7 22.3 22.3 0 0 0-.6 12.5c.5-2.4 1.1-4.7 1.7-6.9.1-.1.1-.3.2-.5v-.2l.2-.3v-.2c.1-.1.1-.3.2-.4v-.2a.5.5 0 0 0 .2-.4h.1a1.7 1.7 0 0 1 .2-.5l.3-.5.3-.4.3-.4 1.1-1.5.3-.4a18.5 18.5 0 0 1 7.3-5.1 24.3 24.3 0 0 1 7.8-1.7 1.5 1.5 0 0 1 1.7 1.6 1.7 1.7 0 0 1-1.6 1.7 22 22 0 0 0-6.7 1.5c-4.6 1.8-7.5 4.9-8.7 9.1a18 18 0 0 0-.7 2.5l.2-.2.5-.5h.2a1 1 0 0 1 .5-.4l.3-.2a1 1 0 0 1 .5-.4c.1-.1.2-.1.2-.2l.6-.3.3-.2.5-.3.5-.2.4-.2.6-.2.4-.2.9-.3a21.9 21.9 0 0 1 7.7-1h.3l.2.2h.3l.2.2.2.2.3.7v.4a1.7 1.7 0 0 1-1.8 1.5 17.4 17.4 0 0 0-6.4.8 12.6 12.6 0 0 0-8.6 8.6c-.1.3-.2 1-.4 1.7v1c0 4.7 1.2 9.5 3.6 15.1a24 24 0 0 0 8.5 10 21.2 21.2 0 0 1-.8-9.1 34.7 34.7 0 0 1 3.2-11.1c2.5-5.5 7.6-10.3 15.1-14.2a54.8 54.8 0 0 1 10.4-4.2 1.6 1.6 0 0 1 2 1.2 1.6 1.6 0 0 1-1.2 1.9c-.1 0-18 5-23.3 16.6-3.2 7-3.9 13.7-1.9 18.9s4.9 7.5 9.9 9.6a16 16 0 0 0 8.4.7h.2c2.4-1 8.7-4.5 9-8.9a12.7 12.7 0 0 0-3.6-9.3 1.6 1.6 0 0 1-.1-2.3 1.7 1.7 0 0 1 2.4-.1l.8.9.2.2c0 .1 0 .1.1.1s0 .1.1.1 0 .1.1.1a.4.4 0 0 0 .1.3c.1.1.2.1.2.2h.1c0 .1 0 .1.1.2h.1c0 .1.1.2.2.3s.1.2.2.3l.2.3c.1.1.2.2.2.3s.2.3.2.4h.1c0 .1.1.2.1.3h.1c0 .2.1.3.2.5s.1.2.1.4.1 0 .1.1a.4.4 0 0 1 .1.3h.1c0 .2.1.3.1.5l.2.5c0 .2.1.3.1.4v.9l.2 1a.8.8 0 0 1 .1.4v.2a1.3 1.3 0 0 1 .1.6v1.9a10 10 0 0 1-3.3 6.6 58.6 58.6 0 0 0 12.7-6.7 1.7 1.7 0 0 1 2.3.3 1.7 1.7 0 0 1-.3 2.4 65.7 65.7 0 0 1-11.4 6.3 45 45 0 0 1-10.8 3.2l-3 .2h-1.9l-.2.3a69 69 0 0 1 7 6c3.9 3.9 8.3 9.7 13.5 13.7a13.1 13.1 0 0 0 3.9 2l.5-1.4 3.4 1-.4 1.3h.2l.8.2h.8a3.1 3.1 0 0 1 2.2-1.4 16.7 16.7 0 0 1 6.3-.1c1.8.4 1.9 1.8 1 3.2a29.7 29.7 0 0 1-3.3 4.6 1.7 1.7 0 0 1-.8.6h-.4c-1.1 1.9-2.6 3.5-4.2 3.7s-3.4-.2-5.6-1l-.3 1-3.4-1 .4-1.1a28.4 28.4 0 0 0-5.7-1.6 68 68 0 0 0-8.2-1.1h-1l-1.2-.2a68 68 0 0 1 6.1 5.9c4.9 5.6 11.9 12.8 10.5 17a4.3 4.3 0 0 1-3.4 2.8s11.5 11.3 11 15.4h1.4l.5.6v1.8a3.1 3.1 0 0 1 1.2.5 2.6 2.6 0 0 1 .8 3.7l-.4.4c-.1.1-.1.2-.3.3h-1.6v1.8h-1.2c3.5 5.1 8 12.5 7.7 17.3 0 .4-.1.7-.1 1a3.7 3.7 0 0 1-2.4 3h-.6a9.5 9.5 0 0 1 .6 2.3 13.4 13.4 0 0 1 .1 4.9 1.8 1.8 0 0 0-.1.6c-.5 1.1-.9 2.2-1.3 3.3a10.4 10.4 0 0 1-2.1 2.7l-.4.5a22.2 22.2 0 0 1-6.5 4.2l2.1 1 .8.4.8.3.3.2h.8l1.9.7.6.3.5.2h.7l1.7.6.4.2 1.8.6h.2l.5.2h.9l2.3.7 1.1.3.8.2 2 .5.6.2h1.6l.8.2h.2l2.5.5.9.6h.1c.2.2.4.3.5.5l.4.4.3.4.5.6a6.9 6.9 0 0 1 1.1 2.6.7.7 0 0 1-.1.5c0 .2-.1.6-.1 1a74.5 74.5 0 0 0 1.8 17.7 12 12 0 0 1 .4 1.6c.4 1.4.8 2.6 1.1 3.9l.5 1.4c.4 1.3.8 2.5 1.1 3.6s.1.4.2.6l.7 2.1 3.7 7.2h-1.5l.5 1.9 2.3 8.4a6.3 6.3 0 0 1-2 .1 12.2 12.2 0 0 1-4.4-.9l-2.2-.8-.4-.2-.8-.4-.4-.2-.3-.2h-.3l-.2-.2-.2-.2h-.7l-.2-.2-.9-5.3-.6.2.2-2.6a19 19 0 0 0 .1-2.3c-.1-3.9-.4-9.7-.8-14.7v-.6a7 7 0 0 1-.1-1.4 1.1 1.1 0 0 1-.1-.5 43 43 0 0 0-.5-4.6 18 18 0 0 0-.5-2.5 2.4 2.4 0 0 0-.2-.8 26.6 26.6 0 0 0-2-4.8l-1.4-2.2-.7-.9a23 23 0 0 0-3.1-3.5l-.9-.3-.9-.3h-.2l-.4-.2h-.2l-4.9-1.6h-.3l-8.1-2.6-1.8-.6-.7-.2a101 101 0 0 0-10.4-2c2.7 8.2 8 24.3 7.4 25.3s-10.5 7.3-13.6 10.5l-9.1 9.6h-3.2l-.6.2-5 1.2.4-.9h-2.3l-6.6-1.3-4.3-1 9.2-6.2 3.5.9s.9.3.9-.2l.4.2h.2l2.4.5h.2a10.9 10.9 0 0 0 3.9-.5l.4-.2.5-.3c1-.7 2.4-1.8 3.9-3.1l1.6-1.4.7-.7.8-.8.4-.3 2.3-2.8a25 25 0 0 0 2.8-4.1.9.9 0 0 0 .3-.6l.6-1a7.9 7.9 0 0 0 .7-2.9 3 3 0 0 1-.3-.9l-.4-.8c-.1-.1-.1-.2-.2-.4a4 4 0 0 0-.5-.9 5.4 5.4 0 0 0-.5-1.1c-1.8-3.4-4.5-8-6-10.6l-.4-.7c-.1-.1-.1-.3-.2-.4a36 36 0 0 0-3.1-4.5h-1a.1.1 0 0 0 .1.1 104 104 0 0 1-16.8.6l-.5 1.8-1.9-.3h-.4c0 .1-.1.1-.2.2h-1.8a2.6 2.6 0 0 1-2.2-1.7h-.5l-1.3-.2-1-.3.5-1.5h-.7l-.7-.2h-2.7l-.7-.2h-.1l-.7-.2h-.2l-.7-.2h-.1l-.7-.2h-.1l-.8-.2-.8-.3c-3.5-.9-6.8-1.9-9.9-2.9l-.7-.2-.7-.3-.7-.2-.7-.2-.7-.3-.6-.2-.7-.2a1.1 1.1 0 0 0-.6-.2l-.6-.3-5.6-2.1h-.8l-.4-.2h-2.2a12.8 12.8 0 0 1-1.7 4.2l-3.3 4.9c-1.7 2.5-3.5 4.9-4.9 6.8l-.4.5a19 19 0 0 1-1.4 1.9l-1 1.4-.4.5-.3.4.3.4.2.3.2.3.3.4h.1l.5.7c0 .1.1.1.1.2 2.5 3.5 7.1 9.7 10 12.2l1.9 1.6 1 .7.7.5c3.8 2.7 7.7 4.8 8.7 6l.2.3c0 .1.1.3.1.4s.1.1.1.2v.3c0 .1.1.1.1.2a30 30 0 0 1 2.9 5l-1-.4 5.3 11.2-2.9-.2a20.8 20.8 0 0 1-4.8-1.1 8.3 8.3 0 0 1-2.6-1.7l-.3-.2-1-5.6-.2.2s-.2-1.1-.3-2.2l-1-3.1-.3-.3c-.1-.1-.2-.1-.2-.2l-.3-.2-.5-.4v-.2l-.4-.3-.2-.2c-2.6-2.2-7.3-6.1-10.8-8.7l-.9-.5-1.2-.9-.3-.2-.5-.3-1.4-.8a1 1 0 0 0-.5-.4l-.3-.2-.6-.4-.7-.4-11.2-7h-.3c-.4-.4-1.1-.8-.7-2s.6-1.1 1.1-2.3a22.6 22.6 0 0 0 1.8-8.9l-2.2.9c-3.9 1.7-9.7 5.1-13.2 11-1 1.6-1.8 3.2-2.6 4.8a8.3 8.3 0 0 1-.7 1.3l-.3.7-.6 1.4c-.5 1.1-.9 2.3-1.4 3.4l-.4 1.3a7 7 0 0 0-.5 1.3c-.3.9-.5 1.7-.8 2.5l-.8 2.6c0 .4-.2.7-.2 1a.4.4 0 0 0-.1.3 8.3 8.3 0 0 0-.4 1.5l-.3 1.2a3.7 3.7 0 0 0-.2.9v.2c-.3 1.1-.5 2.2-.8 3.1a2.9 2.9 0 0 1-.2.9c0 .2 0 .5-.1.6l-.3 1.4v.2a1.1 1.1 0 0 0-.1.5v.2c0 .2-.1.3-.1.4v.2c0 .2-.1.3-.1.4s-3.2 1.8-5.2 2.6h-.1l-2.8 1.3-.5.3-1.5.6a.4.4 0 0 1 .1-.3l-.6.3s-9.7 4.3-10 4.3v-.2c-.1 0-.1-.1-.1-.2v-.9h-.4v-1.2a14 14 0 0 1 .3-3.3 9.8 9.8 0 0 1 1.3-3.2 27 27 0 0 1 3.4-4.2h6.7v-.3l2 .4h1.6l1-2.6a117 117 0 0 0 3.6-11.3 4 4 0 0 1 .1-.5 10.5 10.5 0 0 0 .4-1.7c.2-1.3.3-2.6.4-3.9s.1-1.6.2-2.3V210a5.7 5.7 0 0 1-.1-1.3 20 20 0 0 1-.1-2.4c-.1-.5-.1-1-.2-1.4a12 12 0 0 1-.1-2.5l.4-.2h.9a12 12 0 0 0 3-.9l.8-.4.5-.3.4-.3 1.6-1.3a16.6 16.6 0 0 0 3.2-5.2l.5-1.2.3-1.3.3-1.3c.2-1.1.4-2.2.5-3.4a39.7 39.7 0 0 0-.5-9.1c-10.2.8-20.1 1.3-29.8 1.4-12.4.3-24.3 0-35.7-.8q-11.7-.9-22.5-2.4a214.3 214.3 0 0 1-42.2-10.7l1.4 3.4 2.3 1.5.4.2c8 5.2 27.5 18.4 34.5 27.3s9.8 17.7 8.5 27c0 .1-.1.2-.1.3a5 5 0 0 1-.2 1.2v.3a1.5 1.5 0 0 0-.1.7.4.4 0 0 0-.1.3l-.3 1a.7.7 0 0 1-.1.5c-.1.2-.1.4-.2.6a2.9 2.9 0 0 1-.2.9c-.1.1-.1.3-.2.5a6 6 0 0 0-.2.7l-.2.4-.3 1c-.1.1-.1.2-.2.4a3.6 3.6 0 0 1-.4.9v.2a5.4 5.4 0 0 0-.5 1.1l-.2.3-.5 1.2a1.6 1.6 0 0 0-.4.7l-.2.2c0 .2-.1.3-.2.5l-.2.3c0 .1-.1.2-.2.4l-.2.3-.2.3-.2.4-.2.3-.3.3c0 .1-.1.2-.2.3s-.1.3-.2.4l-.2.2-.3.4h-.1a14 14 0 0 1-2.3 2.5l-.4.5-.5.5c-.2.2-.4.3-.5.5-9.4 8.2-22.2 9.1-26.4 9.2h-1.2L4.2 260.7a4 4 0 0 1-4.2-4v-.4c.2-.3.2-.4.2-.5m22.9-143.6c-1.5.6-2.6 1.5-2.7 2.3a1.1 1.1 0 0 0 .4 1.3c0 .1.2.2.2.3l1.4-1.4 3.2-3a11 11 0 0 0-2.5.5m11.2-9.3a1.4 1.4 0 0 0-1-.5h-.2a4.2 4.2 0 0 0-2.4 2.6 5.6 5.6 0 0 0-.4 1.2 4.3 4.3 0 0 1 .4.7l1.6-1.6 2.3-2.1Zm19.4-20.1v-.7l-1.1-.4h-1.2a2.3 2.3 0 0 0-1.5.5 1.4 1.4 0 0 0-.2 1.1 5.1 5.1 0 0 0 .7 1.5l3.7-.8c-.1-.4-.3-.8-.4-1.2m10.1-2.7c-.1-.5-.3-.8-.7-.9h-.5a3.7 3.7 0 0 0-2.1.9l-.8.7a1.1 1.1 0 0 1 .3.8 3.4 3.4 0 0 1 .1 1l2.2-.5 1.4-.3a2.9 2.9 0 0 0 .1-1.7m22.4 6a1.9 1.9 0 0 0-1.7-.3.7.7 0 0 0-.4.7 2.9 2.9 0 0 0 .6 1.9l1.8.2a1.9 1.9 0 0 1-.1-.8 2.2 2.2 0 0 1 .5-1.1Zm7.1.6-.8-.2-1 .2-.8.4a5 5 0 0 1 .2 1.2 1.4 1.4 0 0 1-.2.7l1.6.2h.2a2.6 2.6 0 0 0 1-1.7.7.7 0 0 0-.2-.8m48.6 134.5h-15.3l.3.9v.2l.3.9a31.5 31.5 0 0 1 1.3 9.2 8.6 8.6 0 0 1-.1 1.6 48.3 48.3 0 0 1 11.8-11.7l2.1-1.4Zm37.5-86.8c-.7.4-2.2 1.8-4.5 5.4s-3.9 7-4.3 9.2-.1 1.9.5 2.3 2.1.9 3.6-.8 3.1-5.1 4-9.2a23.6 23.6 0 0 0 .7-6.9m71.1 37.9c-1.3-5.2-2.3-6.8-3.2-10.8a319 319 0 0 1-31.1-14.4c-10.8-5.8-20.4-10.9-26.6-14.8-1.4 3.2-4.5 8-6.7 7.8s-1.5-.7-1.9-1.6a49 49 0 0 1-1.3 5.9c-.9 2.9-2.5 6.8-5 8.3a3.8 3.8 0 0 1-2.5.7 4.4 4.4 0 0 1-1.9-.7c-2.2-1.2-1.8-4.6.9-9.9a45.6 45.6 0 0 1 4.6-7.1l.3-.4a66.6 66.6 0 0 1-9 3.7h-1.7a1.3 1.3 0 0 0-.1.6h-.1c0 .1 0 .1-.1.1h-.3a.1.1 0 0 0-.1.1h-.1c-1.7 1.5-5.9 5.1-7.8 4h-.6l-.2-.4h-.1l-.2.2h-.1l-.4.2h-.7l-.2.2-.2.2h-.1l-.5.3-.6.3-2.1 1.4c.2 3.1.4 5.8.4 7.4a5.1 5.1 0 0 1 3.7 4.1c13.5-1.3 36.7-3.1 39.1-.7s5.6 9.7 8.2 16a4 4 0 0 1 2.4.2c1.7 1.4 4.3 5.8 4.9 8.9v.4c0 .1.1.1.1.2v.8h-.1v.3c-.1.6-.8 1.2-1.9 1.9l6.3 13.1h.1c13.7-.5 25.3-3.7 30.8-6.7q5.7-3 6.3-12.3a39 39 0 0 0-.6-7.5m-14 49a2 2 0 0 0 .1-.7v-.2c0-.2.1-.4.1-.6s.3-1 .4-1.4l-16.1.6 2.2 1 .6.4a63 63 0 0 1 13.2 9.9 23.6 23.6 0 0 1-.5-9m57.5-1.6.3.2h.3c.1-6.1-2.2-11.9-7.1-18.2s-18.1-15.7-27-21.7l-.5-.3h-.1l-.4-.3h-.2l-.4-.3h-.2l-.3-.2c2.1 5 4.9 12.9 4.7 19a28.6 28.6 0 0 1-1 7.3 10 10 0 0 0-.5 1.6l2.1.2a55.3 55.3 0 0 1 16.4 4.9 92.5 92.5 0 0 1 13.8 7.8Zm-30.2 26.8h3c4-.3 11.4-1.4 17.4-5.7l1.7-1.3a19.7 19.7 0 0 0 5.2-6.7 35 35 0 0 0 2.5-6.2l-1-.8c-4.3-3.1-17.5-12.1-30.9-13.3h-3.2l-.2.3c-.1.1-.2.1-.2.2l-.3.3c-.1 0-.1.1-.2.2l-.4.4-.3.2-.2.3-.3.2-.2.2-.5.4h-.1l-.4.3h-.2l-.4.2-.2.2-.6.3h-.2l-.4.2h-.2l-.5.2h-.1l-.7.2h-.9l-.7.2a54 54 0 0 1-6.5.5 9.3 9.3 0 0 0-1.2 2.9c-1.9 8 5 20.3 8.8 25.7Zm-76.6.4.3 1.4 56.7-1.3-.3-.4h-.1l-.4-.6-.2-.2-.2-.3a96 96 0 0 0-8.4-9.6c-7.2-7.3-18.3-15.6-29.5-13.8-8.7 1.5-14.3 6.9-16.7 16.3a37.7 37.7 0 0 0-1.2 8.3zm-4.1-11a27.9 27.9 0 0 1 9.3-14.6l.6-.3v-.2l.5-.3h.2l.5-.4H187l-5.7.2h-11.2l.8.5h.1a34.7 34.7 0 0 1 11.3 13c.3.9.5 1.5.8 2.1m-1.7 12.5a2.8 2.8 0 0 0 .1-.9c-.1-.2-.1-.4-.2-.6a51 51 0 0 0-4.1-10.1c-5-9.4-11.9-14.1-20.4-14.1h-.5c-14.6.3-24.8 16-29.6 25.5h-.1c0 .2-.1.3-.2.5a.1.1 0 0 1-.1.1c-.1.2-.1.4-.2.5v.4Zm-61.9 1.4.7-1.5h.1c.5-1.9 1.2-4.4 1.7-7 .9-5.2 1.5-12.2-.7-17.6l-.3-.6h-.1l-.3-.7-.3-.5H87.5l-.6.5-1 .8-.9.8a80 80 0 0 0-8.8 8.7 135 135 0 0 0-12.1 16.4l-.9 1.5Z" data-name="katman 1" style="fill:#d22028"/>
  </g>
</svg>